<?xml version="1.0" encoding="UTF-8" standalone="no"?>
<!-- Created with Inkscape (http://www.inkscape.org/) -->
<svg id="svg2" xmlns:rdf="http://www.w3.org/1999/02/22-rdf-syntax-ns#" xmlns="http://www.w3.org/2000/svg" xml:space="preserve" height="68" viewBox="0 0 68.000001 68" width="68" version="1.1" xmlns:cc="http://creativecommons.org/ns#" xmlns:dc="http://purl.org/dc/elements/1.1/"><metadata id="metadata8"><rdf:RDF><cc:Work rdf:about=""><dc:format>image/svg+xml</dc:format><dc:type rdf:resource="http://purl.org/dc/dcmitype/StillImage"/><dc:title/></cc:Work></rdf:RDF></metadata><g id="g10" transform="matrix(1.25 0 0 -1.25 -490.73 127.6)"><g id="g12" transform="scale(.1)"><path id="path40" d="m3981.8 693h432.1v88.871h-432.1v-88.871z" fill="#4068bb"/><path id="path42" d="m3981.8 807.46h432.1v88.891h-432.1v-88.891z" fill="#5ca3de"/><path id="path44" d="m4345.3 1016h-295.03c-37.84 0-68.5-31.808-68.5-71v-23.082h432.1v23.082c0 39.192-30.7 71-68.57 71" fill="#9adff7"/><path id="path46" d="m3981.8 667.96v-23.078c0-39.191 30.66-71.004 68.5-71.004h184.54v-93.855l90.57 93.855h19.92c37.87 0 68.57 31.813 68.57 71.004v23.078h-432.1" fill="#2d4e9b"/><path id="path48" d="m4062.8 573.88h-12.56c-37.84 0-68.5 31.813-68.5 71.004v23.078h171.84l-90.78-94.082" fill="#455ca6"/><path id="path50" d="m4288.2 807.46h-306.44v88.891h392.2l-85.76-88.891" fill="#73aee2"/><path id="path52" d="m4177.8 693h-196v88.871h281.76l-85.8-88.87" fill="#5877c4"/></g></g></svg>
